<?xml version="1.0" standalone="no"?>
<svg xmlns:xlink="http://www.w3.org/1999/xlink" id="wave" style="transform:rotate(0deg); transition: 0.3s" viewBox="0 0 1440 100" version="1.1" xmlns="http://www.w3.org/2000/svg"><defs><linearGradient id="sw-gradient-0" x1="0" x2="0" y1="1" y2="0"><stop stop-color="rgba(255, 249, 234, 1)" offset="0%"/><stop stop-color="rgba(255, 249, 234, 1)" offset="100%"/></linearGradient></defs><path style="transform:translate(0, 0px); opacity:1" fill="url(#sw-gradient-0)" d="M0,90L40,75C80,60,160,30,240,16.7C320,3,400,7,480,16.7C560,27,640,43,720,51.7C800,60,880,60,960,50C1040,40,1120,20,1200,11.7C1280,3,1360,7,1440,21.7C1520,37,1600,63,1680,66.7C1760,70,1840,50,1920,45C2000,40,2080,50,2160,48.3C2240,47,2320,33,2400,31.7C2480,30,2560,40,2640,38.3C2720,37,2800,23,2880,30C2960,37,3040,63,3120,63.3C3200,63,3280,37,3360,28.3C3440,20,3520,30,3600,43.3C3680,57,3760,73,3840,75C3920,77,4000,63,4080,55C4160,47,4240,43,4320,35C4400,27,4480,13,4560,20C4640,27,4720,53,4800,66.7C4880,80,4960,80,5040,76.7C5120,73,5200,67,5280,68.3C5360,70,5440,80,5520,75C5600,70,5680,50,5720,40L5760,30L5760,100L5720,100C5680,100,5600,100,5520,100C5440,100,5360,100,5280,100C5200,100,5120,100,5040,100C4960,100,4880,100,4800,100C4720,100,4640,100,4560,100C4480,100,4400,100,4320,100C4240,100,4160,100,4080,100C4000,100,3920,100,3840,100C3760,100,3680,100,3600,100C3520,100,3440,100,3360,100C3280,100,3200,100,3120,100C3040,100,2960,100,2880,100C2800,100,2720,100,2640,100C2560,100,2480,100,2400,100C2320,100,2240,100,2160,100C2080,100,2000,100,1920,100C1840,100,1760,100,1680,100C1600,100,1520,100,1440,100C1360,100,1280,100,1200,100C1120,100,1040,100,960,100C880,100,800,100,720,100C640,100,560,100,480,100C400,100,320,100,240,100C160,100,80,100,40,100L0,100Z"/></svg>